<svg id="Layer_1" data-name="Layer 1" xmlns="http://www.w3.org/2000/svg" viewBox="0 0 215.82 36.66"><defs><style>.cls-1{fill:#ffe233;}</style></defs><path class="cls-1" d="M34.52,15.34l13.11,34.1H41.74L38.25,40H25.19l-3.5,9.44H15.86L29,15.34ZM27,35h9.34L31.69,22.39Z" transform="translate(-15.86 -13.34)"/><path class="cls-1" d="M54.85,42.33c.61,2.06,2.45,3.11,4.89,3.11S64,44.44,64,42.5c0-1.33-.83-2.06-2.89-2.56L56,38.72c-3.5-.83-6.11-2.72-6.11-6.78,0-4.44,3.95-7.72,9.33-7.72,5.78,0,9.06,2.78,9.89,7.28H63.63c-.5-1.61-2-2.72-4.5-2.72-1.94,0-3.94.89-3.94,2.83,0,1.11.77,1.84,2.55,2.28L63,35.11c4.22,1,6.33,3.39,6.33,7C69.29,47,65.24,50,59.68,50c-5.77,0-9.77-2.89-10.49-7.67Z" transform="translate(-15.86 -13.34)"/><path class="cls-1" d="M77.84,42.33c.61,2.06,2.44,3.11,4.88,3.11s4.22-1,4.22-2.94c0-1.33-.83-2.06-2.88-2.56L79,38.72c-3.5-.83-6.11-2.72-6.11-6.78,0-4.44,3.94-7.72,9.33-7.72,5.77,0,9,2.78,9.88,7.28H86.61c-.5-1.61-1.94-2.72-4.5-2.72-1.94,0-3.94.89-3.94,2.83,0,1.11.78,1.84,2.55,2.28l5.22,1.22c4.23,1,6.34,3.39,6.34,7C92.28,47,88.22,50,82.67,50c-5.78,0-9.78-2.89-10.5-7.67Z" transform="translate(-15.86 -13.34)"/><path class="cls-1" d="M117.08,41.78c-.83,4.88-4.44,8.22-10.38,8.22C99.81,50,95,44.77,95,37.17c0-7.39,4.83-13,11.56-13,6.94,0,10.72,5,10.72,12.17v2H100.48c.16,4.33,2.66,6.94,6.22,6.94,2.66,0,4.66-1.17,5.27-3.55Zm-16.44-7.45h11.17c-.06-3-1.78-5.44-5.17-5.44C103.59,28.89,101.31,30.78,100.64,34.33Z" transform="translate(-15.86 -13.34)"/><path class="cls-1" d="M147.14,24.22c5.05,0,8,3.56,8,9.17v16h-5.56V34.28c0-3.06-1.33-5.06-4.05-5.06a4.36,4.36,0,0,0-4.39,3.67V49.44h-5.56V34.28c0-3.06-1.33-5.06-4.05-5.06a4.36,4.36,0,0,0-4.39,3.67V49.44h-5.55V24.78h5.55v2a7.6,7.6,0,0,1,6.17-2.61,7.92,7.92,0,0,1,6.5,3.28A9.09,9.09,0,0,1,147.14,24.22Z" transform="translate(-15.86 -13.34)"/><path class="cls-1" d="M166.24,49.44h-5.56V13.34h5.56V26.89a8.39,8.39,0,0,1,6.27-2.67c7.22,0,11.44,5.84,11.44,12.89S179.73,50,172.51,50a8.39,8.39,0,0,1-6.27-2.67Zm0-7.66a6,6,0,0,0,5.33,3.27c4.28,0,6.83-3.39,6.83-7.94s-2.55-7.94-6.83-7.94a6,6,0,0,0-5.33,3.27Z" transform="translate(-15.86 -13.34)"/><path class="cls-1" d="M193.79,49.44h-5.55V13.34h5.55Z" transform="translate(-15.86 -13.34)"/><path class="cls-1" d="M202.25,20.73a3.39,3.39,0,1,1,3.45-3.39A3.45,3.45,0,0,1,202.25,20.73ZM205,49.44h-5.55V24.78H205Z" transform="translate(-15.86 -13.34)"/><path class="cls-1" d="M210.74,24.78h5.56v2.33A8.94,8.94,0,0,1,223,24.22c5.61,0,8.72,3.73,8.72,9.17v16h-5.55V34.33c0-3-1.5-5-4.67-5a5.22,5.22,0,0,0-5.16,3.94V49.44h-5.56Z" transform="translate(-15.86 -13.34)"/></svg>