<?xml version="1.0" standalone="no"?>
<!DOCTYPE svg PUBLIC "-//W3C//DTD SVG 20010904//EN"
 "http://www.w3.org/TR/2001/REC-SVG-20010904/DTD/svg10.dtd">
<svg version="1.0" xmlns="http://www.w3.org/2000/svg"
 width="684.000000pt" height="684.000000pt" viewBox="0 0 684.000000 684.000000"
 preserveAspectRatio="xMidYMid meet">
<metadata>
Created by potrace 1.11, written by Peter Selinger 2001-2013
</metadata>
<g transform="translate(0.000000,684.000000) scale(0.100000,-0.100000)"
fill="#000000" stroke="none">
<path d="M2241 6783 c-15 -67 -160 -678 -197 -833 -32 -130 -34 -139 -40 -170
-3 -14 -12 -52 -21 -85 -16 -65 -21 -87 -29 -125 -3 -14 -10 -43 -16 -65 -5
-22 -12 -47 -13 -55 -4 -20 -53 -224 -100 -420 -20 -85 -38 -164 -41 -175 -2
-11 -17 -76 -34 -145 -17 -69 -36 -145 -41 -170 -6 -25 -14 -63 -20 -85 -5
-22 -12 -49 -14 -60 -3 -11 -16 -67 -30 -125 -14 -58 -28 -116 -31 -130 -3
-14 -25 -108 -50 -210 -25 -102 -48 -196 -50 -210 -3 -14 -14 -61 -25 -105
-10 -44 -21 -89 -23 -100 -3 -11 -14 -58 -26 -105 -11 -47 -23 -96 -26 -110
-3 -14 -14 -59 -24 -100 -10 -41 -21 -86 -24 -100 -2 -14 -21 -92 -41 -175
-20 -82 -47 -199 -62 -260 -14 -60 -34 -144 -44 -185 -11 -41 -22 -86 -24
-100 -2 -14 -11 -53 -20 -87 -9 -35 -18 -71 -20 -80 -2 -10 -13 -58 -25 -108
-12 -49 -23 -97 -25 -105 -2 -8 -11 -46 -20 -85 -9 -38 -18 -77 -20 -85 -2 -8
-8 -35 -14 -60 -7 -25 -14 -56 -17 -70 -3 -14 -25 -108 -50 -210 -25 -102 -47
-196 -50 -209 -3 -14 -18 -81 -35 -150 -32 -139 -41 -175 -40 -178 0 -2 -5
-17 -10 -35 -6 -18 -13 -46 -16 -63 -3 -16 -9 -37 -14 -46 -4 -9 -6 -18 -4
-21 3 -2 -4 -34 -14 -71 -11 -37 -18 -67 -16 -67 2 0 -2 -18 -10 -40 -8 -22
-12 -40 -10 -40 2 0 -2 -21 -10 -48 -14 -47 -64 -259 -71 -297 -2 -11 -12 -54
-24 -95 -11 -41 -22 -87 -25 -102 l-5 -28 154 0 155 0 14 53 c12 46 29 113 42
172 2 11 11 47 20 80 8 33 17 71 19 85 3 14 19 83 36 155 18 72 34 141 36 155
3 14 10 43 16 65 5 22 12 48 14 57 2 10 6 26 8 36 2 10 11 47 20 83 9 35 18
73 20 84 5 23 26 113 32 135 2 8 11 47 20 85 8 39 17 78 20 87 2 10 6 26 8 36
2 10 11 47 20 83 9 35 18 73 20 84 3 11 25 108 50 215 26 107 58 245 72 305
14 61 31 128 37 150 6 22 10 43 9 46 -1 4 3 22 9 40 6 19 12 43 14 54 1 11 8
40 15 65 7 25 14 52 15 60 11 47 69 295 100 420 38 158 41 170 50 215 3 17 12
55 20 85 8 30 17 69 20 87 3 18 10 44 15 58 5 14 9 29 9 33 -1 4 0 9 1 12 1 3
3 12 5 20 4 19 55 238 62 265 2 11 9 39 14 63 5 24 11 47 13 51 3 4 8 23 11
42 3 19 17 77 30 129 13 52 26 106 29 120 2 14 10 48 16 75 6 28 13 57 15 65
2 8 16 64 30 124 26 104 29 119 40 167 2 11 6 28 9 37 3 9 8 32 11 51 3 19 8
37 10 41 2 3 6 17 9 31 8 42 45 200 71 309 14 58 28 116 31 130 2 14 9 39 14
55 4 17 16 66 26 110 10 44 19 85 20 90 4 15 11 43 24 100 6 28 27 115 46 194
19 80 36 154 39 165 2 12 4 21 5 21 1 0 3 9 5 21 3 11 21 88 40 170 20 82 39
160 41 174 3 14 9 41 14 60 5 19 11 46 13 60 3 14 10 45 17 70 7 25 13 52 15
60 2 8 15 65 30 125 15 61 28 119 31 130 2 11 10 46 18 78 l13 57 -151 0 -151
0 -14 -57z"/>
<path d="M4301 6763 c11 -43 21 -87 23 -98 2 -11 11 -51 21 -88 9 -37 18 -76
20 -85 2 -9 4 -17 5 -17 1 0 4 -13 6 -30 3 -16 9 -44 15 -62 5 -17 12 -44 14
-60 3 -15 9 -44 15 -63 8 -31 77 -322 85 -360 6 -28 57 -245 67 -280 5 -19 11
-46 14 -60 2 -14 7 -38 11 -55 4 -16 8 -34 9 -40 1 -5 7 -30 14 -55 7 -25 14
-53 16 -63 2 -10 5 -26 8 -35 3 -9 8 -28 10 -42 3 -14 19 -83 36 -155 17 -71
33 -139 36 -150 15 -70 33 -142 37 -155 4 -8 8 -28 11 -45 3 -16 7 -39 10 -50
39 -163 69 -284 72 -300 4 -19 8 -40 18 -82 2 -10 11 -45 19 -78 9 -33 18 -71
21 -85 17 -77 30 -135 76 -325 60 -250 111 -464 115 -485 14 -63 71 -304 101
-425 1 -5 5 -21 8 -35 3 -14 12 -52 20 -86 8 -34 17 -72 20 -85 3 -13 9 -39
15 -57 5 -18 10 -35 10 -37 0 -3 2 -18 5 -33 4 -15 9 -37 11 -49 10 -44 13
-59 25 -103 7 -25 14 -52 15 -60 15 -72 92 -399 122 -520 3 -14 7 -32 9 -40 2
-8 21 -90 44 -182 22 -92 42 -175 43 -185 2 -10 7 -29 10 -43 4 -14 20 -83 37
-155 57 -243 157 -669 210 -890 12 -49 23 -98 26 -108 2 -10 5 -26 8 -35 3 -9
8 -28 10 -42 3 -14 10 -45 16 -70 6 -25 13 -56 15 -70 3 -14 8 -31 10 -37 3
-10 44 -13 160 -13 85 0 155 2 155 4 0 5 -38 164 -52 216 -7 25 -13 50 -13 55
0 6 -6 28 -12 50 -6 22 -18 76 -28 120 -9 44 -21 94 -26 111 -10 31 -14 52
-25 108 -2 16 -7 32 -9 36 -2 4 -7 20 -9 37 -3 17 -26 113 -50 214 -25 101
-48 199 -51 218 -3 19 -8 37 -10 41 -2 3 -6 17 -8 31 -3 13 -10 42 -15 64 -6
22 -13 51 -16 65 -2 14 -14 66 -26 115 -12 50 -23 97 -25 105 -4 19 -34 146
-75 315 -18 72 -34 141 -36 154 -3 14 -23 99 -45 190 -22 90 -41 171 -43 180
-1 9 -7 34 -13 56 -11 44 -31 128 -37 160 -3 11 -17 70 -31 130 -15 61 -28
117 -30 126 -2 8 -10 44 -19 80 -9 35 -18 73 -20 84 -4 18 -30 126 -43 180 -2
11 -9 38 -13 60 -15 65 -17 73 -54 229 -20 82 -39 163 -42 179 -2 17 -7 33 -9
37 -2 3 -6 17 -8 31 -3 13 -10 44 -17 69 -7 25 -14 54 -15 65 -2 11 -22 99
-45 195 -23 96 -43 182 -45 190 -2 8 -8 35 -14 60 -13 52 -19 77 -25 105 -2
11 -12 49 -21 85 -9 36 -19 76 -22 90 -4 21 -64 277 -79 335 -3 11 -7 31 -10
45 -3 14 -11 50 -19 80 -8 30 -17 69 -20 87 -3 18 -9 43 -15 57 -5 15 -8 26
-5 26 2 0 -2 18 -10 40 -8 22 -12 40 -10 40 2 0 -1 15 -6 33 -5 17 -12 46 -15
62 -3 17 -16 73 -29 125 -13 52 -26 106 -29 120 -3 14 -12 54 -21 90 -9 36
-19 76 -21 90 -3 14 -10 43 -16 65 -5 22 -12 47 -14 55 -5 22 -34 149 -45 195
-5 22 -12 51 -15 65 -3 14 -19 81 -36 150 -17 69 -32 134 -34 145 -3 20 -9 47
-19 83 -2 9 -14 57 -25 106 -11 49 -23 93 -26 98 -3 4 -74 8 -158 8 l-153 0
18 -77z"/>
<path d="M3382 5527 c-7 -10 -46 -159 -58 -228 -2 -8 -11 -42 -19 -75 -9 -32
-18 -70 -21 -84 -3 -14 -12 -52 -21 -85 -8 -33 -17 -68 -19 -77 -2 -10 -7 -28
-10 -40 -3 -13 -7 -32 -9 -43 -1 -11 -8 -40 -15 -65 -7 -25 -14 -52 -15 -60
-5 -25 -84 -350 -100 -415 -9 -33 -18 -71 -21 -85 -3 -14 -18 -78 -34 -143
-17 -65 -32 -132 -35 -150 -3 -18 -10 -45 -15 -62 -14 -46 -32 -117 -36 -142
-6 -31 -101 -427 -115 -477 -6 -22 -12 -46 -14 -55 -4 -19 -72 -305 -82 -341
-3 -14 -7 -32 -9 -40 -2 -8 -8 -33 -13 -55 -6 -22 -27 -107 -46 -190 -19 -82
-38 -161 -42 -175 -3 -14 -7 -29 -9 -35 -1 -5 -7 -30 -13 -55 -7 -25 -14 -56
-17 -70 -3 -14 -10 -42 -15 -64 -6 -21 -8 -41 -4 -44 7 -7 1684 -9 1696 -1 6
3 6 22 -1 50 -6 24 -15 62 -20 84 -5 22 -11 49 -14 60 -2 11 -38 157 -80 325
-41 168 -114 463 -161 655 -48 193 -88 359 -90 370 -2 11 -9 40 -15 65 -7 25
-13 53 -15 63 -2 10 -7 27 -10 37 -3 10 -8 28 -10 39 -9 39 -77 320 -126 516
-16 66 -32 129 -34 140 -10 45 -15 63 -29 120 -14 57 -24 102 -26 117 -1 4 -6
22 -11 40 -6 18 -12 42 -14 53 -3 11 -16 67 -31 125 -14 58 -27 112 -29 120
-2 8 -8 35 -15 60 -7 25 -13 52 -15 60 -8 38 -38 160 -52 211 -15 53 -18 56
-48 57 -18 1 -37 -4 -43 -11z m46 -1072 c-3 -3 7 -53 23 -110 15 -58 26 -105
23 -105 -3 0 0 -8 5 -17 5 -10 11 -31 14 -48 3 -16 21 -97 42 -180 20 -82 38
-157 40 -165 4 -18 35 -151 76 -320 17 -69 32 -132 34 -140 1 -8 8 -35 15 -60
7 -25 14 -52 15 -60 8 -37 28 -123 51 -220 35 -145 35 -141 41 -175 3 -16 9
-38 14 -47 5 -10 8 -18 5 -18 -2 0 0 -16 6 -36 5 -20 11 -44 13 -53 2 -9 15
-63 29 -121 13 -57 23 -106 21 -108 -5 -5 -935 -5 -940 0 -2 2 14 80 36 173
22 94 42 179 44 190 3 11 9 41 15 66 6 26 13 55 15 65 2 11 4 19 6 19 1 0 3 9
5 20 2 11 8 40 14 65 13 51 18 72 26 114 2 16 7 32 9 36 2 3 6 17 9 31 2 13
12 56 21 94 9 39 18 78 20 88 2 10 6 26 9 35 3 9 8 32 11 51 3 19 8 38 11 42
2 4 8 27 13 51 5 24 23 104 41 178 18 74 34 144 36 155 1 11 5 29 8 40 5 20
24 96 31 125 7 28 46 195 50 215 27 121 31 135 42 135 4 0 4 -2 1 -5z"/>
<path d="M2328 1153 c-5 -7 -19 -52 -30 -100 -25 -114 -26 -118 -28 -118 -1 0
-4 -11 -6 -25 -3 -14 -9 -43 -15 -65 -6 -22 -13 -51 -16 -65 -2 -14 -9 -43
-15 -65 -6 -22 -13 -49 -15 -59 -2 -10 -13 -55 -24 -100 -12 -45 -23 -90 -25
-101 -7 -37 -12 -59 -43 -183 -17 -67 -33 -132 -35 -145 -3 -12 -5 -22 -6 -22
-2 0 -4 -12 -15 -67 l-7 -38 156 0 c86 0 156 2 156 5 0 2 41 172 91 377 50
205 93 386 96 402 8 46 21 76 35 77 48 3 1699 1 1701 -2 2 -3 102 -410 112
-453 7 -35 27 -118 44 -181 6 -22 20 -82 33 -133 l22 -92 149 0 149 0 -6 32
c-3 18 -8 42 -10 53 -2 11 -18 76 -36 145 -34 133 -38 151 -46 190 -3 14 -10
43 -16 65 -5 22 -11 47 -13 55 -2 8 -8 35 -15 60 -7 25 -13 52 -15 60 -2 8
-11 47 -20 85 -9 39 -18 77 -20 85 -2 8 -13 53 -24 100 -24 98 -30 121 -41
173 -4 21 -13 44 -19 50 -17 17 -2169 17 -2183 0z"/>
</g>
</svg>
